# xmcd CD database file
#
# Track frame offsets:
#	150
#	18490
#	40095
#	63055
#	87605
#	119035
#	146797
#	162007
#	182805
#	221300
#	242777
#
# Disc length: 3713 seconds
#
# Revision: 0
# Processed by: cddbd v1.5PL3 Copyright (c) Steve Scherf et al.
# Submitted via: CDex 1.51
#
DISCID=990e7f0b
DTITLE=Heat Wave - 月に吠える
DYEAR=1998
DGENRE=Rock and Roll
TTITLE0=The Answer
TTITLE1=「33」
TTITLE2=ホーボーマン
TTITLE3=ナイスガイ
TTITLE4=夜の果てへの旅
TTITLE5=ファイティングマン
TTITLE6=普通の男
TTITLE7=放浪の星
TTITLE8=遊園地（ルナパーク）にて
TTITLE9=陽はまた昇る
TTITLE10=たったひとりの友人
EXTD=YEAR: 1998
EXTT0=
EXTT1=
EXTT2=
EXTT3=
EXTT4=
EXTT5=
EXTT6=
EXTT7=
EXTT8=
EXTT9=
EXTT10=
PLAYORDER=
